<svg width="530" height="676" viewBox="0 0 530 676" fill="none" xmlns="http://www.w3.org/2000/svg">
<path d="M238.295 235.492C282.979 293.463 407.948 312.638 490.714 316.305C512.518 317.271 530 299.426 530 277.6V40C530 17.9086 512.091 0 490 0H106.874C69.8888 0 52.2607 46.3927 79.3506 71.5729C137.422 125.55 203.965 190.955 238.295 235.492Z" fill="#2EB600"/>
<path d="M457.456 431.22C433.464 378.081 337.368 307.139 268.707 262.39C259.49 256.383 265.109 241.272 275.98 242.967L521.415 281.231C526.285 281.99 529.875 286.184 529.875 291.112V582.591C529.875 594.574 510.916 596.825 507.845 585.243C493.57 531.393 475.325 470.799 457.456 431.22Z" fill="#2EB600"/>
</svg>
